<svg width="20" height="20" viewBox="0 0 20 20" fill="none" xmlns="http://www.w3.org/2000/svg">
<rect width="20" height="20" fill="#F5F5F5"/>
<rect width="1440" height="1024" transform="translate(-532 -648)" fill="white"/>
<rect x="-479" y="-38" width="890" height="401" rx="30" fill="#EEF6FF"/>
<mask id="path-2-inside-1_0_1" fill="white">
<path d="M0 5C0 2.23858 2.23858 0 5 0H15C17.7614 0 20 2.23858 20 5V15C20 17.7614 17.7614 20 15 20H5C2.23858 20 0 17.7614 0 15V5Z"/>
</mask>
<path fill-rule="evenodd" clip-rule="evenodd" d="M2.89453 20.0825L3.27759 19.1587L3.46911 18.6969C3.90997 18.8797 4.39142 18.9861 4.89829 18.9987C4.93208 18.9996 4.96599 19 5 19H7.5V19.5V20.5V21H5C4.91829 21 4.83694 20.9984 4.75598 20.9951C4.03266 20.9661 3.34049 20.8087 2.70301 20.5443L2.89453 20.0825ZM12.5 21H15C15.0507 21 15.1013 20.9994 15.1518 20.9981C15.9085 20.9793 16.6325 20.8199 17.297 20.5443L17.1055 20.0825L16.7224 19.1587L16.5309 18.6969C16.106 18.8731 15.6433 18.9783 15.1566 18.997C15.1047 18.999 15.0525 19 15 19H12.5V19.5V20.5V21ZM0.841265 16.7224L-0.0824605 17.1055L-0.544324 17.297C-0.819894 16.6325 -0.979267 15.9085 -0.998112 15.1518C-0.999368 15.1013 -1 15.0507 -1 15V12.5H-0.5H0.5H1V15C1 15.0383 1.00053 15.0764 1.0016 15.1144C1.01564 15.6166 1.12184 16.0937 1.30313 16.5309L0.841265 16.7224ZM1 7.5V5C1 4.45579 1.10813 3.93936 1.30313 3.46911L0.841266 3.27759L-0.0824603 2.89453L-0.544323 2.70301C-0.838265 3.41184 -1 4.18829 -1 5V7.5H-0.5H0.5H1ZM3.27759 0.841265L2.89453 -0.0824605L2.70301 -0.544324C3.41184 -0.838265 4.18829 -1 5 -1H7.5V-0.5V0.5V1H5C4.45579 1 3.93936 1.10813 3.46912 1.30313L3.27759 0.841265ZM12.5 1H15C15.034 1 15.0679 1.00042 15.1017 1.00126C15.6086 1.01386 16.09 1.12031 16.5309 1.30313L16.7224 0.841266L17.1055 -0.0824603L17.297 -0.544323C16.6383 -0.817454 15.9213 -0.976435 15.1719 -0.997578C15.1148 -0.999189 15.0575 -1 15 -1H12.5V-0.5V0.5V1ZM19.1587 3.27759L20.0825 2.89453L20.5443 2.70301C20.8199 3.36754 20.9793 4.0915 20.9981 4.84823C20.9994 4.89867 21 4.94927 21 5V7.5H20.5H19.5H19V5C19 4.94754 18.999 4.89535 18.997 4.84342C18.9783 4.35666 18.8731 3.89403 18.6969 3.46912L19.1587 3.27759ZM19 12.5V15C19 15.034 18.9996 15.0679 18.9987 15.1017C18.9861 15.6086 18.8797 16.09 18.6969 16.5309L19.1587 16.7224L20.0825 17.1055L20.5443 17.297C20.8087 16.6595 20.9661 15.9673 20.9951 15.244C20.9984 15.1631 21 15.0817 21 15V12.5H20.5H19.5H19Z" fill="#705CF6" mask="url(#path-2-inside-1_0_1)"/>
<path fill-rule="evenodd" clip-rule="evenodd" d="M2.89453 20.0825L3.27759 19.1587L3.46911 18.6969C3.90997 18.8797 4.39142 18.9861 4.89829 18.9987C4.93208 18.9996 4.96599 19 5 19H7.5V19.5V20.5V21H5C4.91829 21 4.83694 20.9984 4.75598 20.9951C4.03266 20.9661 3.34049 20.8087 2.70301 20.5443L2.89453 20.0825ZM12.5 21H15C15.0507 21 15.1013 20.9994 15.1518 20.9981C15.9085 20.9793 16.6325 20.8199 17.297 20.5443L17.1055 20.0825L16.7224 19.1587L16.5309 18.6969C16.106 18.8731 15.6433 18.9783 15.1566 18.997C15.1047 18.999 15.0525 19 15 19H12.5V19.5V20.5V21ZM0.841265 16.7224L-0.0824605 17.1055L-0.544324 17.297C-0.819894 16.6325 -0.979267 15.9085 -0.998112 15.1518C-0.999368 15.1013 -1 15.0507 -1 15V12.5H-0.5H0.5H1V15C1 15.0383 1.00053 15.0764 1.0016 15.1144C1.01564 15.6166 1.12184 16.0937 1.30313 16.5309L0.841265 16.7224ZM1 7.5V5C1 4.45579 1.10813 3.93936 1.30313 3.46911L0.841266 3.27759L-0.0824603 2.89453L-0.544323 2.70301C-0.838265 3.41184 -1 4.18829 -1 5V7.5H-0.5H0.5H1ZM3.27759 0.841265L2.89453 -0.0824605L2.70301 -0.544324C3.41184 -0.838265 4.18829 -1 5 -1H7.5V-0.5V0.5V1H5C4.45579 1 3.93936 1.10813 3.46912 1.30313L3.27759 0.841265ZM12.5 1H15C15.034 1 15.0679 1.00042 15.1017 1.00126C15.6086 1.01386 16.09 1.12031 16.5309 1.30313L16.7224 0.841266L17.1055 -0.0824603L17.297 -0.544323C16.6383 -0.817454 15.9213 -0.976435 15.1719 -0.997578C15.1148 -0.999189 15.0575 -1 15 -1H12.5V-0.5V0.5V1ZM19.1587 3.27759L20.0825 2.89453L20.5443 2.70301C20.8199 3.36754 20.9793 4.0915 20.9981 4.84823C20.9994 4.89867 21 4.94927 21 5V7.5H20.5H19.5H19V5C19 4.94754 18.999 4.89535 18.997 4.84342C18.9783 4.35666 18.8731 3.89403 18.6969 3.46912L19.1587 3.27759ZM19 12.5V15C19 15.034 18.9996 15.0679 18.9987 15.1017C18.9861 15.6086 18.8797 16.09 18.6969 16.5309L19.1587 16.7224L20.0825 17.1055L20.5443 17.297C20.8087 16.6595 20.9661 15.9673 20.9951 15.244C20.9984 15.1631 21 15.0817 21 15V12.5H20.5H19.5H19Z" fill="black" fill-opacity="0.2" mask="url(#path-2-inside-1_0_1)"/>
<path d="M10 15C9.8705 15 9.7463 14.9486 9.65473 14.857C9.56316 14.7654 9.51172 14.6412 9.51172 14.5117V5.48828C9.51172 5.35878 9.56316 5.23458 9.65473 5.14301C9.7463 5.05144 9.8705 5 10 5C10.1295 5 10.2537 5.05144 10.3453 5.14301C10.4368 5.23458 10.4883 5.35878 10.4883 5.48828V14.5117C10.4883 14.6412 10.4368 14.7654 10.3453 14.857C10.2537 14.9486 10.1295 15 10 15Z" fill="#705CF6"/>
<path d="M14.5117 10.4883H5.48828C5.35878 10.4883 5.23458 10.4368 5.14301 10.3453C5.05144 10.2537 5 10.1295 5 10C5 9.8705 5.05144 9.7463 5.14301 9.65473C5.23458 9.56316 5.35878 9.51172 5.48828 9.51172H14.5117C14.6412 9.51172 14.7654 9.56316 14.857 9.65473C14.9486 9.7463 15 9.8705 15 10C15 10.1295 14.9486 10.2537 14.857 10.3453C14.7654 10.4368 14.6412 10.4883 14.5117 10.4883Z" fill="#705CF6"/>
</svg>
