<svg width="18" height="25" viewBox="0 0 18 25" fill="none" xmlns="http://www.w3.org/2000/svg">
<path d="M9.27539 19.2817H17.6641V25H0L0.090332 24.1865C0.723144 18.4741 5.68066 15.0107 8.875 11.959C10.6582 10.2559 11.5859 8.93242 11.5859 7.54736C11.5859 5.97315 10.7871 5.1748 9.21045 5.1748C9.09863 5.1748 8.98682 5.17822 8.875 5.18604C7.82764 5.26367 6.82617 5.77832 6.66992 8.1377L6.61963 8.89111L0.548828 8.2998L0.630371 7.5625C1.17676 2.61475 4.18311 0 9.32471 0C15.0854 0 17.6641 3.63086 17.6641 7.22852C17.6641 13.1265 11.9321 16.3467 9.27539 19.2817Z" fill="#705CF6" fill-opacity="0.7"/>
</svg>
