<svg width="18" height="25" viewBox="0 0 18 25" fill="none" xmlns="http://www.w3.org/2000/svg">
<path d="M17.6602 16.939C17.6602 21.437 13.7754 24.9614 8.87109 24.9995C8.84326 25 8.81592 25 8.78809 25C0.193848 25 0.0761719 17.2397 0 17.0933L5.94629 16.4111C6.02734 16.623 5.92334 19.8384 8.75537 19.8384C8.79395 19.8384 8.83252 19.8374 8.87109 19.8359C9.6416 19.8032 11.2173 19.2808 11.4116 17.1904C11.4243 17.0518 11.4312 16.9058 11.4312 16.751C11.4312 14.7686 10.1699 13.8818 8.92041 13.8818C8.90381 13.8818 8.8877 13.8818 8.87109 13.8823C7.79541 13.8945 6.61133 14.3027 5.90478 14.4697L6.6665 9.14453C7.77441 9.05713 8.41406 9.0459 8.87109 8.95605C9.58203 8.81787 9.98291 8.33838 10.166 8.02002C10.168 8.01709 10.1694 8.01416 10.1709 8.01172C10.731 7.00244 10.4985 5.36377 8.87109 5.15283C8.75684 5.1377 8.63525 5.12988 8.50684 5.12988C6.02637 5.12988 6.16406 8.07959 6.08252 8.31055L0.284668 7.37891C0.454101 7.05029 0.901367 0 8.63916 0C8.7168 0 8.79443 0.000976563 8.87109 0.00244141C13.5444 0.102051 16.5679 3.33203 16.5679 6.66797C16.5679 8.51025 15.7305 10.0576 14.0737 11.2832C16.2964 12.3032 17.6602 14.3896 17.6602 16.939Z" fill="#705CF6" fill-opacity="0.7"/>
</svg>
