<svg width="25" height="21" viewBox="0 0 25 21" fill="none" xmlns="http://www.w3.org/2000/svg">
<path d="M4.93633 4.98721V1.41514C4.93633 1.1126 4.69106 0.86734 4.38853 0.86734H2.56318C2.26064 0.86734 2.01538 1.1126 2.01538 1.41514V4.98721" fill="#E5E9EA"/>
<path d="M3.34189 4.98721V0.86734H2.56318C2.26064 0.86734 2.01538 1.1126 2.01538 1.41514V4.98721" fill="#D1D1D1"/>
<path d="M25 5.63823V19.003C25 19.9193 24.2571 20.6622 23.3408 20.6622H1.65918C0.742871 20.6622 0 19.9193 0 19.003V5.63823C0 4.72192 0.742871 3.97905 1.65918 3.97905H4.93994C5.64658 3.97905 6.27617 3.53159 6.50781 2.86377L7.11343 1.11582C7.34507 0.447949 7.97412 0 8.6813 0H18.3597C19.0664 0 19.6954 0.447949 19.927 1.11582L20.5332 2.86377C20.7648 3.53164 21.3938 3.97905 22.1005 3.97905H23.3408C24.2571 3.97905 25 4.72192 25 5.63823Z" fill="#FCB65F"/>
<path d="M2.96021 20.6622H1.65918C0.742871 20.6622 0 19.9193 0 19.003V5.63824C0 4.72194 0.742871 3.97906 1.65918 3.97906H2.85713V3.98214C1.98877 4.03571 1.30103 4.75665 1.30103 5.63824V19.003C1.30103 19.9194 2.0439 20.6622 2.96021 20.6622Z" fill="#E29A4B"/>
<path d="M9.98232 0C9.2752 0 8.64609 0.447949 8.41445 1.11582L7.80884 2.86377C7.5772 3.53164 6.94761 3.97905 6.24097 3.97905H5.12769V3.96836C5.75625 3.89692 6.29707 3.47192 6.50776 2.86377L7.11338 1.11582C7.34502 0.447949 7.97407 0 8.68125 0C8.68135 0 9.98232 0 9.98232 0Z" fill="#E29A4B"/>
<path d="M25 8.49438V19.0031C25 19.9194 24.2571 20.6623 23.3408 20.6623H1.65918C0.742871 20.6623 0 19.9194 0 19.0031V8.49438H25Z" fill="#53BCE9"/>
<path d="M2.96021 20.6622H1.65918C0.742871 20.6622 0 19.9193 0 19.003V8.49438H1.30103V19.0031C1.30103 19.9194 2.0439 20.6622 2.96021 20.6622Z" fill="#36A6CE"/>
<path d="M12.4999 19.1061C16.3177 19.1061 19.4126 16.0112 19.4126 12.1934C19.4126 8.37555 16.3177 5.28061 12.4999 5.28061C8.6821 5.28061 5.58716 8.37555 5.58716 12.1934C5.58716 16.0112 8.6821 19.1061 12.4999 19.1061Z" fill="#E5E9EA"/>
<path d="M17.3878 12.1934C17.3878 13.6327 16.7659 14.9265 15.7755 15.8214C14.9087 16.6046 13.7607 17.0816 12.5 17.0816C11.2398 17.0816 10.0914 16.6045 9.22456 15.8214C8.23428 14.927 7.61182 13.6326 7.61182 12.1933C7.61182 10.754 8.23428 9.45962 9.22456 8.56578C10.0914 7.78209 11.2398 7.30557 12.5 7.30557C13.7607 7.30557 14.9087 7.78262 15.7755 8.56578C16.7659 9.46021 17.3878 10.7541 17.3878 12.1934Z" fill="#566368"/>
<path d="M15.9559 8.73702C16.9736 9.75474 17.4487 11.1094 17.3813 12.4425C16.0482 12.5099 14.6935 12.0348 13.6758 11.0171C12.6581 9.99937 12.1829 8.64468 12.2507 7.31202C13.5834 7.2442 14.9381 7.71934 15.9559 8.73702Z" fill="#6F7B7F"/>
<path d="M11.3236 13.3694C12.3413 14.3871 12.8165 15.7418 12.749 17.0748C11.4163 17.1427 10.0609 16.6676 9.04318 15.6498C8.02546 14.6321 7.55031 13.2766 7.61847 11.9443C8.95119 11.8764 10.3059 12.3516 11.3236 13.3694Z" fill="#6F7B7F"/>
<path d="M12.4999 17.464C9.59365 17.464 7.22925 15.0996 7.22925 12.1934C7.22925 9.2872 9.59365 6.92279 12.4999 6.92279C15.4061 6.92279 17.7705 9.28715 17.7705 12.1934C17.7705 15.0996 15.4061 17.464 12.4999 17.464ZM12.4999 7.68807C10.0156 7.68807 7.99453 9.70917 7.99453 12.1934C7.99453 14.6776 10.0156 16.6987 12.4999 16.6987C14.9841 16.6987 17.0052 14.6776 17.0052 12.1934C17.0052 9.70917 14.9841 7.68807 12.4999 7.68807Z" fill="#435054"/>
<path d="M12.4998 10.2313C11.4178 10.2313 10.5376 11.1115 10.5376 12.1935C10.5376 13.2755 11.4178 14.1556 12.4998 14.1556C13.5817 14.1556 14.4619 13.2754 14.4619 12.1935C14.4619 11.1115 13.5817 10.2313 12.4998 10.2313Z" fill="#435054"/>
<path d="M14.9832 3.59662H17.9901C18.3854 3.59662 18.706 3.27617 18.706 2.8808V2.09311C18.706 1.6978 18.3855 1.37729 17.9901 1.37729H14.9832C14.5878 1.37729 14.2673 1.69775 14.2673 2.09311V2.8808C14.2673 3.27612 14.5878 3.59662 14.9832 3.59662Z" fill="#E5E9EA"/>
<path d="M17.9902 3.97926H14.9833C14.3775 3.97926 13.8848 3.48649 13.8848 2.88077V2.09318C13.8848 1.48746 14.3775 0.99469 14.9833 0.99469H17.9902C18.5959 0.99469 19.0887 1.48746 19.0887 2.09318V2.88082C19.0887 3.48654 18.5959 3.97926 17.9902 3.97926ZM14.9833 1.75997C14.7995 1.75997 14.6501 1.90944 14.6501 2.09313V2.88077C14.6501 3.06451 14.7995 3.21393 14.9833 3.21393H17.9902C18.174 3.21393 18.3234 3.06447 18.3234 2.88077V2.09318C18.3234 1.90944 18.1739 1.76002 17.9902 1.76002L14.9833 1.75997Z" fill="#E29A4B"/>
<path d="M4.75259 19.2459C5.51678 19.2459 6.13628 18.6264 6.13628 17.8622C6.13628 17.098 5.51678 16.4785 4.75259 16.4785C3.9884 16.4785 3.3689 17.098 3.3689 17.8622C3.3689 18.6264 3.9884 19.2459 4.75259 19.2459Z" fill="#566368"/>
</svg>
