<svg width="25" height="25" viewBox="0 0 25 25" fill="none" xmlns="http://www.w3.org/2000/svg">
<path d="M25 8.92871C25 13.8599 21.0024 17.8569 16.0713 17.8569C13.8696 17.8569 11.854 17.0596 10.2974 15.7383L6.77588 19.2598L6.2583 18.7422L5.74023 18.2241L9.26172 14.7026C7.94043 13.146 7.14307 11.1304 7.14307 8.92871C7.14307 3.99756 11.1401 0 16.0713 0C18.5371 0 20.769 0.999512 22.3848 2.61523C24.0005 4.23096 25 6.46289 25 8.92871Z" fill="#1E608B"/>
<path d="M25 8.92871C25 13.8599 21.0024 17.8569 16.0713 17.8569C13.8696 17.8569 11.854 17.0596 10.2974 15.7383L6.77588 19.2598L6.2583 18.7422L22.3848 2.61523C24.0005 4.23096 25 6.46289 25 8.92871Z" fill="#1E3F6B"/>
<path d="M21.9143 8.92872C21.9143 12.1553 19.2985 14.7711 16.0714 14.7711C14.4578 14.7711 12.9977 14.1171 11.94 13.0601C10.883 12.0024 10.229 10.5423 10.229 8.92872C10.229 5.70162 12.8448 3.08585 16.0714 3.08585C17.685 3.08585 19.1457 3.7398 20.2027 4.79737C21.2603 5.85445 21.9143 7.31519 21.9143 8.92872Z" fill="#F5FBFF"/>
<path d="M21.9142 8.92871C21.9142 12.1553 19.2984 14.7711 16.0713 14.7711C14.4577 14.7711 12.9976 14.1171 11.9399 13.0601L20.2026 4.79736C21.2602 5.85444 21.9142 7.31519 21.9142 8.92871Z" fill="#CBE1FA"/>
<path d="M8.09912 19.4263L3.04834 24.4771C2.35107 25.1743 1.22021 25.1743 0.522949 24.4771C-0.174316 23.7798 -0.174316 22.6489 0.522949 21.9517L5.57373 16.9009L8.09912 19.4263Z" fill="#EF4A50"/>
<path d="M8.09912 19.4263L3.04834 24.4771C2.35107 25.1743 1.22021 25.1743 0.522949 24.4771L6.83642 18.1636L8.09912 19.4263Z" fill="#D53136"/>
</svg>
