<svg width="25" height="25" viewBox="0 0 25 25" fill="none" xmlns="http://www.w3.org/2000/svg">
<path d="M25 11.5945H13.2324V0H13.9648C20.023 0 25 4.90376 25 10.8729V11.5945Z" fill="#4D88FF"/>
<path d="M3.27002 21.4103C5.25933 23.3703 8.00591 24.6324 11.035 24.6324C17.0932 24.6324 22.0213 19.7286 22.0213 13.7595V13.0378H11.7674L5.35874 16.4657L3.27002 21.4103Z" fill="#FFD500"/>
<path d="M11.7677 2.93472H11.0353C8.37842 2.93472 5.93936 3.86921 4.0376 5.42139L8.15137 12.3613L11.7677 13.0378V2.93472Z" fill="#4DD4FF"/>
<path d="M4.03745 5.42139C1.60273 7.40848 0 10.4082 0 13.7595C0 16.744 1.28086 19.4502 3.27017 21.4103L11.7676 13.0378L4.03745 5.42139Z" fill="#B4F41F"/>
</svg>
