<svg width="25" height="25" viewBox="0 0 25 25" fill="none" xmlns="http://www.w3.org/2000/svg">
<path d="M25 12.5C25 19.4036 19.4036 25 12.5 25C5.59635 25 0 19.4036 0 12.5C0 5.59635 5.59635 0 12.5 0C19.4036 0 25 5.59635 25 12.5Z" fill="url(#paint0_linear_46_218)"/>
<path d="M12.5 2.73438C12.0955 2.73438 11.7676 3.06225 11.7676 3.4668C11.7676 3.87135 12.0955 4.19922 12.5 4.19922C17.0771 4.19922 20.8008 7.92294 20.8008 12.5C20.8008 17.0771 17.0771 20.8008 12.5 20.8008C7.92294 20.8008 4.19922 17.0771 4.19922 12.5C4.19922 12.0955 3.87135 11.7676 3.4668 11.7676C3.06225 11.7676 2.73438 12.0955 2.73438 12.5C2.73438 17.8848 7.11517 22.2656 12.5 22.2656C17.8848 22.2656 22.2656 17.8848 22.2656 12.5C22.2656 7.11517 17.8848 2.73438 12.5 2.73438Z" fill="white"/>
<path d="M8.54834 5.09211C8.6418 5.09211 8.7366 5.07418 8.82834 5.03623L9.81845 4.62615C10.1921 4.47127 10.3697 4.04288 10.2148 3.66904C10.0601 3.29539 9.63153 3.118 9.25788 3.27269L8.26777 3.68277C7.89412 3.83765 7.71655 4.26604 7.87123 4.63988C7.98815 4.92198 8.26091 5.09211 8.54834 5.09211Z" fill="white"/>
<path d="M5.73369 7.2239C5.92118 7.2239 6.10848 7.15238 6.25154 7.00933L7.00933 6.25154C7.29543 5.96543 7.29543 5.50176 7.00933 5.21565C6.72341 4.92974 6.25955 4.92974 5.97363 5.21565L5.21565 5.97363C4.92974 6.25955 4.92974 6.72322 5.21565 7.00933C5.35871 7.15238 5.5462 7.2239 5.73369 7.2239Z" fill="white"/>
<path d="M3.66916 10.2148C3.76072 10.2527 3.8557 10.2708 3.94916 10.2708C4.23641 10.2708 4.50916 10.1005 4.62608 9.81843L5.03616 8.82832C5.19085 8.45467 5.01346 8.02609 4.63981 7.8714C4.26597 7.71653 3.83758 7.8941 3.68271 8.26775L3.27263 9.25786C3.11794 9.6317 3.29532 10.0601 3.66916 10.2148Z" fill="white"/>
<path d="M12.5 8.70557C12.0954 8.70557 11.7676 9.03344 11.7676 9.43799V11.7676H9.43793C9.03338 11.7676 8.70551 12.0955 8.70551 12.5C8.70551 12.9046 9.03338 13.2325 9.43793 13.2325H11.7676V15.5621C11.7676 15.9667 12.0954 16.2945 12.5 16.2945C12.9045 16.2945 13.2324 15.9667 13.2324 15.5621V13.2325H15.562C15.9666 13.2325 16.2945 12.9046 16.2945 12.5C16.2945 12.0955 15.9666 11.7676 15.562 11.7676H13.2324V9.43799C13.2324 9.03344 12.9045 8.70557 12.5 8.70557Z" fill="white"/>
<defs>
<linearGradient id="paint0_linear_46_218" x1="0" y1="12.5" x2="25" y2="12.5" gradientUnits="userSpaceOnUse">
<stop stop-color="#31D8FF"/>
<stop offset="1" stop-color="#FF80FF"/>
</linearGradient>
</defs>
</svg>
