<svg width="25" height="25" viewBox="0 0 25 25" fill="none" xmlns="http://www.w3.org/2000/svg">
<path d="M10.9124 24.9981C16.9391 24.9981 21.8248 20.1125 21.8248 14.0858C21.8248 8.05901 16.9391 3.17337 10.9124 3.17337C4.88564 3.17337 0 8.05901 0 14.0858C0 20.1125 4.88564 24.9981 10.9124 24.9981Z" fill="#FD646F"/>
<path d="M21.8248 14.0858C21.8248 20.1124 16.939 24.9982 10.9124 24.9982C7.6422 24.9982 4.70748 23.5594 2.70789 21.2799C4.62867 22.9657 7.14609 23.9878 9.90198 23.9878C15.9285 23.9878 20.8144 19.1019 20.8144 13.0754C20.8144 10.3195 19.7923 7.80207 18.1065 5.88129C20.386 7.88088 21.8248 10.8156 21.8248 14.0858Z" fill="#FC4755"/>
<path d="M10.9124 22.3205C15.4603 22.3205 19.1472 18.6337 19.1472 14.0857C19.1472 9.53774 15.4603 5.85089 10.9124 5.85089C6.3644 5.85089 2.67755 9.53774 2.67755 14.0857C2.67755 18.6337 6.3644 22.3205 10.9124 22.3205Z" fill="#F5F5F5"/>
<path d="M19.1472 14.0857C19.1472 18.6336 15.4602 22.3206 10.9124 22.3206C8.38134 22.3206 6.11702 21.1783 4.60596 19.3818C6.0377 20.5852 7.88523 21.3102 9.902 21.3102C14.4498 21.3102 18.1368 17.6232 18.1368 13.0753C18.1368 11.0586 17.4118 9.21104 16.2084 7.7793C18.005 9.29036 19.1472 11.5547 19.1472 14.0857Z" fill="#E6E6E6"/>
<path d="M10.9124 19.643C13.9816 19.643 16.4696 17.1549 16.4696 14.0857C16.4696 11.0166 13.9816 8.5285 10.9124 8.5285C7.84322 8.5285 5.35516 11.0166 5.35516 14.0857C5.35516 17.1549 7.84322 19.643 10.9124 19.643Z" fill="#FD646F"/>
<path d="M16.4696 14.0858C16.4696 17.1549 13.9815 19.643 10.9124 19.643C9.12045 19.643 7.52603 18.7947 6.51007 17.4777C7.44823 18.2021 8.62485 18.6326 9.902 18.6326C12.9711 18.6326 15.4592 16.1445 15.4592 13.0753C15.4592 11.7982 15.0288 10.6216 14.3043 9.68341C15.6214 10.6994 16.4696 12.2938 16.4696 14.0858Z" fill="#FC4755"/>
<path d="M10.9124 16.9149C12.4749 16.9149 13.7415 15.6482 13.7415 14.0857C13.7415 12.5232 12.4749 11.2566 10.9124 11.2566C9.3499 11.2566 8.08325 12.5232 8.08325 14.0857C8.08325 15.6482 9.3499 16.9149 10.9124 16.9149Z" fill="#F5F5F5"/>
<path d="M21.2372 17.6267C21.022 18.2542 20.7517 18.8554 20.4314 19.4247L17.9953 18.2885C18.3292 17.7278 18.598 17.1235 18.7915 16.4865L21.2372 17.6267Z" fill="#FC4755"/>
<path d="M18.7915 16.4865C18.598 17.1235 18.3292 17.7278 17.9953 18.2885L15.5496 17.1483C15.9103 16.6042 16.1771 15.9934 16.3276 15.3376L18.7915 16.4865Z" fill="#E6E6E6"/>
<path d="M16.3277 15.3377C16.1771 15.9934 15.9104 16.6042 15.5497 17.1483L13.0226 15.9702C13.4601 15.4801 13.7299 14.837 13.741 14.1312L16.3277 15.3377Z" fill="#FC4755"/>
<path d="M13.741 14.1312C13.7299 14.837 13.4601 15.4801 13.0226 15.9702L10.6558 14.8663C10.193 14.6511 9.97677 14.1216 10.142 13.6498C10.1531 13.6189 10.1652 13.5881 10.1794 13.5573C10.2945 13.3108 10.4981 13.1345 10.7356 13.0481C10.972 12.9622 11.2423 12.9657 11.4883 13.0809L13.741 14.1312Z" fill="#E6E6E6"/>
<path d="M24.9155 4.55572C24.9964 4.5692 25.0284 4.66848 24.9705 4.72668L23.9016 5.80044L23.2459 6.45922L21.454 8.25885C21.3389 8.3745 21.1749 8.42739 21.0139 8.40087L18.3413 7.96068L20.3429 5.97524L21.0063 5.31746L22.2263 4.10699L24.9155 4.55572Z" fill="#50758D"/>
<path d="M23.9017 5.80039L23.2459 6.45917L20.343 5.97519L21.0063 5.31741L23.9017 5.80039Z" fill="#2B597F"/>
<path d="M20.9472 2.94046L19.7332 4.12819L19.0729 4.77435L17.0784 6.72594L16.6329 4.01917C16.6065 3.85861 16.6591 3.69518 16.774 3.5801L18.5733 1.779L19.2315 1.11971L20.3207 0.0297309C20.379 -0.0286706 20.4789 0.00376343 20.4919 0.0852527L20.9472 2.94046Z" fill="#50758D"/>
<path d="M19.7332 4.12821L19.0729 4.77436L18.5733 1.77901L19.2316 1.11972L19.7332 4.12821Z" fill="#2B597F"/>
<path d="M23.2565 2.77727C23.2565 3.02886 23.1605 3.28146 22.968 3.47344L11.7682 14.6733C11.4075 15.0345 10.8361 15.0567 10.4491 14.74C10.4238 14.7193 10.3991 14.697 10.3753 14.6733C10.1828 14.4808 10.0869 14.2292 10.0869 13.9766C10.0869 13.725 10.1828 13.4724 10.3753 13.2804L21.5752 2.08059C21.9596 1.69563 22.5836 1.69563 22.968 2.08059C22.9918 2.10434 23.014 2.12909 23.0347 2.15435C23.1827 2.33522 23.2565 2.55599 23.2565 2.77727Z" fill="#918291"/>
<path d="M23.2565 2.77727C23.2565 3.02886 23.1605 3.28147 22.968 3.47344L11.7682 14.6733C11.4075 15.0345 10.8361 15.0567 10.4491 14.74L23.0347 2.15436C23.1827 2.33522 23.2565 2.55599 23.2565 2.77727Z" fill="#7A6E79"/>
</svg>
