<svg width="25" height="25" viewBox="0 0 25 25" fill="none" xmlns="http://www.w3.org/2000/svg">
<path d="M12.5 0C5.62988 0 0 5.62988 0 12.5C0 19.3701 5.62988 25 12.5 25C19.3701 25 25 19.3701 25 12.5C25 5.62988 19.3701 0 12.5 0Z" fill="#7FE881"/>
<path d="M25 12.5C25 19.3701 19.3701 25 12.5 25V0C19.3701 0 25 5.62988 25 12.5Z" fill="#68DB8F"/>
<path d="M19.9121 9.35054L17.8467 7.28516C17.5538 6.99219 17.085 6.99219 16.8066 7.28516L10.3027 13.7891L7.46094 10.9473C7.18262 10.6543 6.71387 10.6543 6.42085 10.9473L4.35547 13.0126C4.0625 13.3056 4.0625 13.7744 4.35547 14.0527L9.79009 19.4874C10.0371 19.7619 10.5682 19.762 10.8154 19.4874L19.9121 10.3906C20.2051 10.1123 20.2051 9.64355 19.9121 9.35054Z" fill="white"/>
<path d="M19.9121 10.3906L12.5 17.8027V11.5918L16.8066 7.28516C17.085 6.99219 17.5537 6.99219 17.8467 7.28516L19.9121 9.35054C20.2051 9.64355 20.2051 10.1123 19.9121 10.3906Z" fill="#F2F2F8"/>
</svg>
