<svg width="25" height="25" viewBox="0 0 25 25" fill="none" xmlns="http://www.w3.org/2000/svg">
<path d="M12.5001 25.0005C19.3926 25.0005 25 19.3928 25 12.5002C25 5.60765 19.3926 0 12.5001 0C5.60754 0 0 5.60765 0 12.5002C0 19.3928 5.60754 25.0005 12.5001 25.0005ZM12.5001 1.71118C18.449 1.71118 23.2888 6.55108 23.2889 12.5002C23.2889 18.4493 18.4491 23.2892 12.5001 23.2893C6.55108 23.2892 1.71129 18.4493 1.71129 12.5001C1.71129 6.5512 6.55108 1.71118 12.5001 1.71118Z" fill="#4B5563" fill-opacity="0.5"/>
<path d="M10.821 17.8537C11.1552 18.1877 11.6969 18.1876 12.031 17.8537C12.3652 17.5194 12.3652 16.9778 12.0308 16.6435L8.74309 13.3559L18.2638 13.355C18.7363 13.3549 19.1192 12.9719 19.1192 12.4992C19.1191 12.0267 18.7362 11.6438 18.2636 11.6438L8.74263 11.6447L12.0312 8.35641C12.3653 8.02228 12.3653 7.4804 12.0312 7.14638C11.8641 6.97937 11.6451 6.89575 11.4261 6.89575C11.2072 6.89575 10.9883 6.97937 10.8211 7.14627L6.07216 11.8951C5.91166 12.0555 5.82153 12.2731 5.82153 12.5001C5.82165 12.7271 5.91177 12.9445 6.07228 13.1053L10.821 17.8537Z" fill="#4B5563" fill-opacity="0.5"/>
</svg>
