<svg width="10" height="10" viewBox="0 0 10 10" fill="none" xmlns="http://www.w3.org/2000/svg">
<path d="M8.99833 4.96907H8.29205C8.14578 4.96907 8.0272 5.08765 8.0272 5.23392V8.45401C8.0272 8.62493 7.8881 8.76399 7.71718 8.76399H1.54586C1.37498 8.76399 1.23598 8.62493 1.23598 8.45401V2.28284C1.23598 2.11189 1.37498 1.97279 1.54586 1.97279H4.93086C5.07712 1.97279 5.19571 1.85421 5.19571 1.70794V1.00167C5.19571 0.855399 5.07712 0.736816 4.93086 0.736816H1.54586C0.693456 0.736816 0 1.43037 0 2.28284V8.45405C0 9.30651 0.693491 10 1.54586 10H7.71714C8.56962 10 9.26314 9.30648 9.26314 8.45405V5.23395C9.26318 5.08765 9.1446 4.96907 8.99833 4.96907Z" fill="#4B5563"/>
<path d="M9.73532 0H6.926C6.77973 0 6.66115 0.118583 6.66115 0.264851V0.971121C6.66115 1.11739 6.77973 1.23597 6.926 1.23597H7.89021L4.2619 4.86418C4.15847 4.96762 4.15847 5.13529 4.2619 5.23875L4.76131 5.73819C4.81099 5.78788 4.87834 5.81578 4.94861 5.81578C5.01885 5.81578 5.08623 5.78788 5.13588 5.73819L8.76419 2.10991V3.07407C8.76419 3.22034 8.88277 3.33892 9.02904 3.33892H9.73532C9.88159 3.33892 10.0002 3.22034 10.0002 3.07407V0.264851C10.0002 0.118583 9.88159 0 9.73532 0Z" fill="#4B5563"/>
</svg>
