<svg width="20" height="20" viewBox="0 0 20 20" fill="none" xmlns="http://www.w3.org/2000/svg">
<path d="M14.1022 15.3132V16.8757C14.1022 18.599 12.7003 20.0009 10.977 20.0009H3.12514C1.40189 20.0009 0 18.599 0 16.8757V3.12514C0 1.40189 1.40189 0 3.12514 0H10.977C12.7003 0 14.1022 1.40189 14.1022 3.12514V4.68771C14.1022 5.11924 13.7524 5.46899 13.3209 5.46899C12.8894 5.46899 12.5396 5.11924 12.5396 4.68771V3.12514C12.5396 2.26359 11.8386 1.56257 10.977 1.56257H3.12514C2.26359 1.56257 1.56257 2.26359 1.56257 3.12514V16.8757C1.56257 17.7373 2.26359 18.4383 3.12514 18.4383H10.977C11.8386 18.4383 12.5396 17.7373 12.5396 16.8757V15.3132C12.5396 14.8816 12.8894 14.5319 13.3209 14.5319C13.7524 14.5319 14.1022 14.8816 14.1022 15.3132ZM19.4288 8.65837L17.6793 6.90887C17.3741 6.60368 16.8794 6.60368 16.5744 6.90887C16.2692 7.21391 16.2692 7.70862 16.5744 8.01366L17.8188 9.25822H8.43787C8.00633 9.25822 7.65659 9.60797 7.65659 10.0395C7.65659 10.471 8.00633 10.8208 8.43787 10.8208H17.8188L16.5744 12.0653C16.2692 12.3704 16.2692 12.8651 16.5744 13.1701C16.727 13.3227 16.9269 13.399 17.1268 13.399C17.3268 13.399 17.5267 13.3227 17.6793 13.1701L19.4288 11.4206C20.1904 10.659 20.1904 9.41997 19.4288 8.65837Z" fill="white"/>
</svg>
