<svg width="20" height="20" viewBox="0 0 20 20" fill="none" xmlns="http://www.w3.org/2000/svg">
<path d="M16.4173 0H2.34375C1.05141 0 0 1.05141 0 2.34375V17.6562C0 18.9486 1.05141 20 2.34375 20H17.6562C18.9486 20 20 18.9486 20 17.6562V3.58266L16.4173 0ZM6.13281 1.5625H10.7812V4.53125H12.3438V1.5625H13.9062V5.3125C13.9062 5.74328 13.5558 6.09375 13.125 6.09375H6.91406C6.48328 6.09375 6.13281 5.74328 6.13281 5.3125V1.5625ZM15.4688 18.4375H4.57031V11.5625C4.57031 11.1317 4.92078 10.7812 5.35156 10.7812H14.6875C15.1183 10.7812 15.4688 11.1317 15.4688 11.5625V18.4375ZM18.4375 17.6562C18.4375 18.087 18.087 18.4375 17.6562 18.4375H17.0312V11.5625C17.0312 10.2702 15.9798 9.21875 14.6875 9.21875H5.35156C4.05922 9.21875 3.00781 10.2702 3.00781 11.5625V18.4375H2.34375C1.91297 18.4375 1.5625 18.087 1.5625 17.6562V2.34375C1.5625 1.91297 1.91297 1.5625 2.34375 1.5625H4.57031V5.3125C4.57031 6.60484 5.62172 7.65625 6.91406 7.65625H13.125C14.4173 7.65625 15.4688 6.60484 15.4688 5.3125V1.5625H15.7702L18.4375 4.22984V17.6562Z" fill="white"/>
</svg>
