<svg width="174" height="158" viewBox="0 0 174 158" fill="none" xmlns="http://www.w3.org/2000/svg">
<path d="M31.344 93.128C31.088 93.128 30.88 93.0693 30.72 92.952C30.5707 92.8347 30.48 92.68 30.448 92.488C30.416 92.2853 30.4533 92.0613 30.56 91.816L34.784 82.456C34.9227 82.1467 35.088 81.928 35.28 81.8C35.4827 81.6613 35.712 81.592 35.968 81.592C36.2133 81.592 36.432 81.6613 36.624 81.8C36.8267 81.928 36.9973 82.1467 37.136 82.456L41.376 91.816C41.4933 92.0613 41.536 92.2853 41.504 92.488C41.472 92.6907 41.3813 92.8507 41.232 92.968C41.0827 93.0747 40.8853 93.128 40.64 93.128C40.3413 93.128 40.1067 93.0587 39.936 92.92C39.776 92.7707 39.632 92.5467 39.504 92.248L38.464 89.832L39.328 90.392H32.576L33.44 89.832L32.416 92.248C32.2773 92.5573 32.1333 92.7813 31.984 92.92C31.8347 93.0587 31.6213 93.128 31.344 93.128ZM35.936 83.944L33.696 89.272L33.28 88.76H38.624L38.224 89.272L35.968 83.944H35.936ZM45.8761 93.16C45.1935 93.16 44.5908 92.9947 44.0681 92.664C43.5561 92.3333 43.1561 91.864 42.8681 91.256C42.5801 90.6373 42.4361 89.912 42.4361 89.08C42.4361 88.2373 42.5801 87.5173 42.8681 86.92C43.1561 86.312 43.5561 85.8427 44.0681 85.512C44.5908 85.1813 45.1935 85.016 45.8761 85.016C46.5268 85.016 47.0921 85.176 47.5721 85.496C48.0628 85.816 48.3935 86.2373 48.5641 86.76H48.3881V82.6C48.3881 82.2693 48.4735 82.0187 48.6441 81.848C48.8148 81.6773 49.0601 81.592 49.3801 81.592C49.7001 81.592 49.9455 81.6773 50.1161 81.848C50.2975 82.0187 50.3881 82.2693 50.3881 82.6V92.104C50.3881 92.4347 50.3028 92.6907 50.1321 92.872C49.9615 93.0427 49.7161 93.128 49.3961 93.128C49.0761 93.128 48.8308 93.0427 48.6601 92.872C48.4895 92.6907 48.4041 92.4347 48.4041 92.104V90.856L48.5801 91.336C48.4201 91.8907 48.0948 92.3333 47.6041 92.664C47.1135 92.9947 46.5375 93.16 45.8761 93.16ZM46.4361 91.64C46.8308 91.64 47.1775 91.544 47.4761 91.352C47.7748 91.16 48.0041 90.8773 48.1641 90.504C48.3348 90.12 48.4201 89.6453 48.4201 89.08C48.4201 88.2267 48.2388 87.592 47.8761 87.176C47.5135 86.7493 47.0335 86.536 46.4361 86.536C46.0415 86.536 45.6948 86.632 45.3961 86.824C45.0975 87.0053 44.8628 87.288 44.6921 87.672C44.5321 88.0453 44.4521 88.5147 44.4521 89.08C44.4521 89.9227 44.6335 90.5627 44.9961 91C45.3588 91.4267 45.8388 91.64 46.4361 91.64ZM55.4699 93.16C54.7872 93.16 54.1845 92.9947 53.6619 92.664C53.1499 92.3333 52.7499 91.864 52.4619 91.256C52.1739 90.6373 52.0299 89.912 52.0299 89.08C52.0299 88.2373 52.1739 87.5173 52.4619 86.92C52.7499 86.312 53.1499 85.8427 53.6619 85.512C54.1845 85.1813 54.7872 85.016 55.4699 85.016C56.1205 85.016 56.6859 85.176 57.1659 85.496C57.6565 85.816 57.9872 86.2373 58.1579 86.76H57.9819V82.6C57.9819 82.2693 58.0672 82.0187 58.2379 81.848C58.4085 81.6773 58.6539 81.592 58.9739 81.592C59.2939 81.592 59.5392 81.6773 59.7099 81.848C59.8912 82.0187 59.9819 82.2693 59.9819 82.6V92.104C59.9819 92.4347 59.8965 92.6907 59.7259 92.872C59.5552 93.0427 59.3099 93.128 58.9899 93.128C58.6699 93.128 58.4245 93.0427 58.2539 92.872C58.0832 92.6907 57.9979 92.4347 57.9979 92.104V90.856L58.1739 91.336C58.0139 91.8907 57.6885 92.3333 57.1979 92.664C56.7072 92.9947 56.1312 93.16 55.4699 93.16ZM56.0299 91.64C56.4245 91.64 56.7712 91.544 57.0699 91.352C57.3685 91.16 57.5979 90.8773 57.7579 90.504C57.9285 90.12 58.0139 89.6453 58.0139 89.08C58.0139 88.2267 57.8325 87.592 57.4699 87.176C57.1072 86.7493 56.6272 86.536 56.0299 86.536C55.6352 86.536 55.2885 86.632 54.9899 86.824C54.6912 87.0053 54.4565 87.288 54.2859 87.672C54.1259 88.0453 54.0459 88.5147 54.0459 89.08C54.0459 89.9227 54.2272 90.5627 54.5899 91C54.9525 91.4267 55.4325 91.64 56.0299 91.64ZM67.3914 93.128C67.0714 93.128 66.826 93.0427 66.6554 92.872C66.4847 92.6907 66.3994 92.4347 66.3994 92.104V86.056C66.3994 85.7253 66.4847 85.4747 66.6554 85.304C66.826 85.1333 67.066 85.048 67.3754 85.048C67.6847 85.048 67.9247 85.1333 68.0954 85.304C68.266 85.4747 68.3514 85.7253 68.3514 86.056V87.144L68.1754 86.744C68.41 86.1787 68.7727 85.752 69.2634 85.464C69.7647 85.1653 70.33 85.016 70.9594 85.016C71.5887 85.016 72.106 85.1333 72.5114 85.368C72.9167 85.6027 73.2207 85.96 73.4234 86.44C73.626 86.9093 73.7274 87.5067 73.7274 88.232V92.104C73.7274 92.4347 73.642 92.6907 73.4714 92.872C73.3007 93.0427 73.0554 93.128 72.7354 93.128C72.4154 93.128 72.1647 93.0427 71.9834 92.872C71.8127 92.6907 71.7274 92.4347 71.7274 92.104V88.328C71.7274 87.72 71.61 87.2773 71.3754 87C71.1514 86.7227 70.7994 86.584 70.3194 86.584C69.7327 86.584 69.2634 86.7707 68.9114 87.144C68.57 87.5067 68.3994 87.992 68.3994 88.6V92.104C68.3994 92.7867 68.0634 93.128 67.3914 93.128ZM79.6148 93.16C78.7294 93.16 77.9668 92.9947 77.3268 92.664C76.6868 92.3333 76.1908 91.864 75.8388 91.256C75.4974 90.648 75.3268 89.928 75.3268 89.096C75.3268 88.2853 75.4921 87.576 75.8228 86.968C76.1641 86.36 76.6281 85.8853 77.2148 85.544C77.8121 85.192 78.4894 85.016 79.2468 85.016C79.8014 85.016 80.2974 85.1067 80.7348 85.288C81.1828 85.4693 81.5614 85.7307 81.8708 86.072C82.1908 86.4133 82.4308 86.8293 82.5908 87.32C82.7614 87.8 82.8468 88.344 82.8468 88.952C82.8468 89.144 82.7774 89.2933 82.6388 89.4C82.5108 89.496 82.3241 89.544 82.0788 89.544H76.9428V88.392H81.4388L81.1828 88.632C81.1828 88.1413 81.1081 87.7307 80.9588 87.4C80.8201 87.0693 80.6121 86.8187 80.3348 86.648C80.0681 86.4667 79.7321 86.376 79.3268 86.376C78.8788 86.376 78.4948 86.4827 78.1748 86.696C77.8654 86.8987 77.6254 87.192 77.4548 87.576C77.2948 87.9493 77.2148 88.3973 77.2148 88.92V89.032C77.2148 89.9067 77.4174 90.5627 77.8228 91C78.2388 91.4267 78.8468 91.64 79.6468 91.64C79.9241 91.64 80.2334 91.608 80.5748 91.544C80.9268 91.4693 81.2574 91.3467 81.5668 91.176C81.7908 91.048 81.9881 90.9947 82.1588 91.016C82.3294 91.0267 82.4628 91.0853 82.5588 91.192C82.6654 91.2987 82.7294 91.432 82.7508 91.592C82.7721 91.7413 82.7401 91.896 82.6548 92.056C82.5801 92.216 82.4468 92.3547 82.2548 92.472C81.8814 92.7067 81.4494 92.8827 80.9588 93C80.4788 93.1067 80.0308 93.16 79.6148 93.16ZM87.3296 93.128C87.063 93.128 86.8336 93.064 86.6416 92.936C86.4496 92.7973 86.295 92.584 86.1776 92.296L83.8576 86.376C83.7616 86.12 83.7296 85.896 83.7616 85.704C83.8043 85.5013 83.9056 85.3413 84.0656 85.224C84.2256 85.1067 84.439 85.048 84.7056 85.048C84.9403 85.048 85.1323 85.1067 85.2816 85.224C85.431 85.3307 85.559 85.5387 85.6656 85.848L87.6016 91.176H87.2336L89.2336 85.72C89.319 85.4853 89.431 85.3147 89.5696 85.208C89.719 85.1013 89.911 85.048 90.1456 85.048C90.3803 85.048 90.5723 85.1067 90.7216 85.224C90.871 85.3307 90.983 85.496 91.0576 85.72L93.0256 91.176H92.6896L94.6416 85.8C94.7483 85.512 94.8816 85.3147 95.0416 85.208C95.2123 85.1013 95.399 85.048 95.6016 85.048C95.8576 85.048 96.055 85.112 96.1936 85.24C96.3323 85.368 96.4123 85.5333 96.4336 85.736C96.455 85.928 96.4176 86.1413 96.3216 86.376L94.0176 92.296C93.911 92.5733 93.7563 92.7813 93.5536 92.92C93.3616 93.0587 93.1323 93.128 92.8656 93.128C92.599 93.128 92.3643 93.0587 92.1616 92.92C91.9696 92.7813 91.8203 92.5733 91.7136 92.296L89.6176 86.744H90.5296L88.4816 92.28C88.375 92.568 88.2256 92.7813 88.0336 92.92C87.8416 93.0587 87.607 93.128 87.3296 93.128ZM108.802 96.008C108.482 96.008 108.237 95.9227 108.066 95.752C107.895 95.5813 107.81 95.3307 107.81 95V91.4H107.986C107.815 91.9227 107.485 92.3493 106.994 92.68C106.514 93 105.949 93.16 105.298 93.16C104.615 93.16 104.013 92.9947 103.49 92.664C102.978 92.3333 102.578 91.864 102.29 91.256C102.002 90.6373 101.858 89.912 101.858 89.08C101.858 88.2373 102.002 87.5173 102.29 86.92C102.578 86.312 102.978 85.8427 103.49 85.512C104.013 85.1813 104.615 85.016 105.298 85.016C105.959 85.016 106.535 85.1813 107.026 85.512C107.517 85.8427 107.842 86.28 108.002 86.824L107.826 87.304V86.056C107.826 85.7253 107.911 85.4747 108.082 85.304C108.253 85.1333 108.498 85.048 108.818 85.048C109.138 85.048 109.383 85.1333 109.554 85.304C109.725 85.4747 109.81 85.7253 109.81 86.056V95C109.81 95.3307 109.719 95.5813 109.538 95.752C109.367 95.9227 109.122 96.008 108.802 96.008ZM105.858 91.64C106.253 91.64 106.599 91.544 106.898 91.352C107.197 91.16 107.426 90.8773 107.586 90.504C107.757 90.12 107.842 89.6453 107.842 89.08C107.842 88.2267 107.661 87.592 107.298 87.176C106.935 86.7493 106.455 86.536 105.858 86.536C105.463 86.536 105.117 86.632 104.818 86.824C104.519 87.0053 104.285 87.288 104.114 87.672C103.954 88.0453 103.874 88.5147 103.874 89.08C103.874 89.9227 104.055 90.5627 104.418 91C104.781 91.4267 105.261 91.64 105.858 91.64ZM114.716 93.16C114.065 93.16 113.526 93.0427 113.1 92.808C112.673 92.5627 112.353 92.2 112.14 91.72C111.937 91.24 111.836 90.6427 111.836 89.928V86.056C111.836 85.7147 111.921 85.464 112.092 85.304C112.262 85.1333 112.508 85.048 112.828 85.048C113.148 85.048 113.393 85.1333 113.564 85.304C113.745 85.464 113.836 85.7147 113.836 86.056V89.96C113.836 90.5147 113.948 90.9253 114.172 91.192C114.396 91.4587 114.753 91.592 115.244 91.592C115.777 91.592 116.214 91.4107 116.556 91.048C116.897 90.6747 117.068 90.184 117.068 89.576V86.056C117.068 85.7147 117.153 85.464 117.324 85.304C117.494 85.1333 117.74 85.048 118.06 85.048C118.38 85.048 118.625 85.1333 118.796 85.304C118.977 85.464 119.068 85.7147 119.068 86.056V92.104C119.068 92.7867 118.742 93.128 118.092 93.128C117.782 93.128 117.542 93.0427 117.372 92.872C117.201 92.6907 117.116 92.4347 117.116 92.104V90.888L117.34 91.368C117.116 91.944 116.774 92.3867 116.316 92.696C115.868 93.0053 115.334 93.16 114.716 93.16ZM125.005 93.16C124.12 93.16 123.357 92.9947 122.717 92.664C122.077 92.3333 121.581 91.864 121.229 91.256C120.888 90.648 120.717 89.928 120.717 89.096C120.717 88.2853 120.883 87.576 121.213 86.968C121.555 86.36 122.019 85.8853 122.605 85.544C123.203 85.192 123.88 85.016 124.637 85.016C125.192 85.016 125.688 85.1067 126.125 85.288C126.573 85.4693 126.952 85.7307 127.261 86.072C127.581 86.4133 127.821 86.8293 127.981 87.32C128.152 87.8 128.237 88.344 128.237 88.952C128.237 89.144 128.168 89.2933 128.029 89.4C127.901 89.496 127.715 89.544 127.469 89.544H122.333V88.392H126.829L126.573 88.632C126.573 88.1413 126.499 87.7307 126.349 87.4C126.211 87.0693 126.003 86.8187 125.725 86.648C125.459 86.4667 125.123 86.376 124.717 86.376C124.269 86.376 123.885 86.4827 123.565 86.696C123.256 86.8987 123.016 87.192 122.845 87.576C122.685 87.9493 122.605 88.3973 122.605 88.92V89.032C122.605 89.9067 122.808 90.5627 123.213 91C123.629 91.4267 124.237 91.64 125.037 91.64C125.315 91.64 125.624 91.608 125.965 91.544C126.317 91.4693 126.648 91.3467 126.957 91.176C127.181 91.048 127.379 90.9947 127.549 91.016C127.72 91.0267 127.853 91.0853 127.949 91.192C128.056 91.2987 128.12 91.432 128.141 91.592C128.163 91.7413 128.131 91.896 128.045 92.056C127.971 92.216 127.837 92.3547 127.645 92.472C127.272 92.7067 126.84 92.8827 126.349 93C125.869 93.1067 125.421 93.16 125.005 93.16ZM130.845 93.128C130.515 93.128 130.259 93.0427 130.077 92.872C129.907 92.6907 129.821 92.4347 129.821 92.104V86.056C129.821 85.7253 129.907 85.4747 130.077 85.304C130.248 85.1333 130.488 85.048 130.797 85.048C131.107 85.048 131.347 85.1333 131.517 85.304C131.688 85.4747 131.773 85.7253 131.773 86.056V87.064H131.613C131.763 86.424 132.056 85.9387 132.493 85.608C132.931 85.2773 133.512 85.08 134.237 85.016C134.461 84.9947 134.637 85.0533 134.765 85.192C134.904 85.32 134.984 85.5227 135.005 85.8C135.027 86.0667 134.963 86.2853 134.813 86.456C134.675 86.616 134.461 86.712 134.173 86.744L133.821 86.776C133.171 86.84 132.68 87.0427 132.349 87.384C132.019 87.7147 131.853 88.184 131.853 88.792V92.104C131.853 92.4347 131.768 92.6907 131.597 92.872C131.427 93.0427 131.176 93.128 130.845 93.128ZM138.555 96.008C138.321 96.008 138.129 95.944 137.979 95.816C137.83 95.6987 137.739 95.5387 137.707 95.336C137.686 95.1333 137.723 94.92 137.819 94.696L138.907 92.28V93.112L135.995 86.376C135.899 86.1413 135.867 85.9227 135.899 85.72C135.931 85.5173 136.027 85.3573 136.187 85.24C136.358 85.112 136.587 85.048 136.875 85.048C137.121 85.048 137.318 85.1067 137.467 85.224C137.617 85.3307 137.75 85.5387 137.867 85.848L140.027 91.24H139.547L141.755 85.832C141.873 85.5333 142.011 85.3307 142.171 85.224C142.331 85.1067 142.545 85.048 142.811 85.048C143.046 85.048 143.233 85.112 143.371 85.24C143.51 85.3573 143.595 85.5173 143.627 85.72C143.659 85.912 143.622 86.1253 143.515 86.36L139.627 95.24C139.489 95.5387 139.339 95.7413 139.179 95.848C139.019 95.9547 138.811 96.008 138.555 96.008Z" fill="#705CF6"/>
<rect x="1.5" y="1.5" width="171" height="155" rx="23.5" stroke="#705CF6" stroke-width="3" stroke-dasharray="20 20"/>
<path d="M87 71C86.741 71 86.4926 70.8971 86.3095 70.714C86.1263 70.5308 86.0234 70.2824 86.0234 70.0234V51.9766C86.0234 51.7176 86.1263 51.4692 86.3095 51.286C86.4926 51.1029 86.741 51 87 51C87.259 51 87.5074 51.1029 87.6905 51.286C87.8737 51.4692 87.9766 51.7176 87.9766 51.9766V70.0234C87.9766 70.2824 87.8737 70.5308 87.6905 70.714C87.5074 70.8971 87.259 71 87 71Z" fill="#705CF6"/>
<path d="M96.0234 61.9766H77.9766C77.7176 61.9766 77.4692 61.8737 77.286 61.6905C77.1029 61.5074 77 61.259 77 61C77 60.741 77.1029 60.4926 77.286 60.3095C77.4692 60.1263 77.7176 60.0234 77.9766 60.0234H96.0234C96.2824 60.0234 96.5308 60.1263 96.714 60.3095C96.8971 60.4926 97 60.741 97 61C97 61.259 96.8971 61.5074 96.714 61.6905C96.5308 61.8737 96.2824 61.9766 96.0234 61.9766Z" fill="#705CF6"/>
</svg>
