<svg width="25" height="25" viewBox="0 0 25 25" fill="none" xmlns="http://www.w3.org/2000/svg">
<path d="M19.5423 3.01812V20.4729L16.5242 21.9819V1.50903L19.5423 3.01812Z" fill="#334DD9"/>
<path d="M18.0332 1.50903V21.9819L5.45776 20.4729V3.01812L18.0332 1.50903Z" fill="#667AE3"/>
<path d="M18.0333 20.4729L16.5242 25H18.0332C18.8632 25 19.5422 24.321 19.5422 23.491V20.4729H18.0333Z" fill="#9F9F9F"/>
<path d="M18.0334 0H16.5244L18.0334 3.01812H19.5425V1.50903C19.5425 0.679053 18.8634 0 18.0334 0Z" fill="#9F9F9F"/>
<path d="M18.0332 20.4729V23.491C18.0332 24.321 17.3541 25 16.5242 25H6.9668C6.13682 25 5.45776 24.321 5.45776 23.491V20.4729H18.0332Z" fill="#BFBFBF"/>
<path d="M18.0332 1.50903V3.01807H5.45776V1.50903C5.45776 0.679053 6.13682 0 6.9668 0H16.5241C17.3541 0 18.0332 0.679053 18.0332 1.50903Z" fill="#BFBFBF"/>
<path d="M14.0091 1.88633H12.5C12.2917 1.88633 12.1228 1.71743 12.1228 1.50908C12.1228 1.30073 12.2917 1.13184 12.5 1.13184H14.0091C14.2174 1.13184 14.3863 1.30073 14.3863 1.50908C14.3863 1.71743 14.2174 1.88633 14.0091 1.88633Z" fill="#808080"/>
<path d="M12.5 23.491C12.9167 23.491 13.2546 23.1532 13.2546 22.7365C13.2546 22.3198 12.9167 21.9819 12.5 21.9819C12.0833 21.9819 11.7455 22.3198 11.7455 22.7365C11.7455 23.1532 12.0833 23.491 12.5 23.491Z" fill="white"/>
<path d="M10.991 1.88633C11.1994 1.88633 11.3683 1.71743 11.3683 1.50908C11.3683 1.30073 11.1994 1.13184 10.991 1.13184C10.7827 1.13184 10.6138 1.30073 10.6138 1.50908C10.6138 1.71743 10.7827 1.88633 10.991 1.88633Z" fill="#808080"/>
</svg>
