<svg width="25" height="25" viewBox="0 0 25 25" fill="none" xmlns="http://www.w3.org/2000/svg">
<path d="M13.8617 20.171L9.62929 21.6801L9.46883 22.2409C9.24096 23.0392 8.37527 23.6921 7.54529 23.6921V24.0694H16.323L13.8617 20.171Z" fill="#ADACA7"/>
<path d="M15.5312 22.241L14.9396 20.171L12.5 18.662L10.0604 20.171L9.62927 21.6801H13.8617L14.0221 22.241C14.25 23.0393 15.1157 23.6922 15.9457 23.6922L16.7002 24.0694L17.4547 23.6922C16.6247 23.6922 15.7591 23.0393 15.5312 22.241Z" fill="#8F8F8B"/>
<path d="M21.9819 20.171H23.491C24.321 20.171 25 19.4919 25 18.6619V15.6438L21.9819 12.6257V20.171Z" fill="#ADACA7"/>
<path d="M0 18.662C0 19.492 0.679074 20.171 1.50905 20.171H21.9819C22.8119 20.171 23.4909 19.492 23.4909 18.662V9.60767L0 15.6439V18.662Z" fill="#CBC9C2"/>
<path d="M23.491 0.553345H21.9819L23.491 15.6439H25V2.0624C25 1.23242 24.321 0.553345 23.491 0.553345Z" fill="#404242"/>
<path d="M23.4909 2.0624C23.4909 1.23242 22.8119 0.553345 21.9819 0.553345H1.50905C0.679074 0.553345 0 1.23242 0 2.0624V15.6439H23.4909V14.1348L12.5 8.09796L23.4909 2.0624Z" fill="#565959"/>
<path d="M23.4909 2.06209L21.9822 2.06104C21.9822 2.06129 12.5 8.09791 12.5 8.09791C12.5 8.09791 21.982 14.1347 21.9819 14.1348L23.4909 14.1338C23.4909 14.1338 23.4908 2.06229 23.4909 2.06209Z" fill="#4B88D5"/>
<path d="M21.9819 2.06214L1.51346 2.06104C1.5122 2.06164 1.51115 14.1346 1.50903 14.1348C1.50903 14.1348 21.9809 14.1338 21.9814 14.1338C21.9816 14.1338 21.9798 2.06234 21.9819 2.06214Z" fill="#69A7FF"/>
<path d="M12.5 18.662C12.9167 18.662 13.2545 18.3242 13.2545 17.9075C13.2545 17.4908 12.9167 17.153 12.5 17.153C12.0833 17.153 11.7455 17.4908 11.7455 17.9075C11.7455 18.3242 12.0833 18.662 12.5 18.662Z" fill="white"/>
<path d="M20.2968 24.4467H4.70319C4.49484 24.4467 4.32593 24.2778 4.32593 24.0694C4.32593 23.861 4.49484 23.6921 4.70319 23.6921H20.2968C20.5051 23.6921 20.674 23.861 20.674 24.0694C20.674 24.2778 20.5051 24.4467 20.2968 24.4467Z" fill="#8F8F8B"/>
</svg>
