<svg width="20" height="20" viewBox="0 0 20 20" fill="none" xmlns="http://www.w3.org/2000/svg">
<path d="M19.2805 17.2443L15.6035 13.5672C15.3274 13.2912 14.9755 13.1432 14.6155 13.1082C15.724 11.7268 16.3902 9.97686 16.3902 8.07189C16.3902 3.62105 12.7692 0 8.31835 0C3.86751 0 0.24646 3.62105 0.24646 8.07189C0.24646 12.5227 3.86751 16.1438 8.31835 16.1438C9.99785 16.1438 11.5584 15.6272 12.8515 14.7457C12.8612 15.1461 13.0157 15.5432 13.3208 15.85L16.9978 19.527C17.3126 19.8423 17.7264 20 18.1392 20C18.5519 20 18.9657 19.8423 19.2805 19.527C19.9112 18.8968 19.9112 17.8749 19.2805 17.2443ZM8.31835 13.4532C5.35113 13.4532 2.93709 11.0402 2.93709 8.07189C2.93709 5.10467 5.35113 2.69063 8.31835 2.69063C11.2856 2.69063 13.6996 5.10467 13.6996 8.07189C13.6996 11.0402 11.2856 13.4532 8.31835 13.4532Z" fill="white"/>
</svg>
